<svg
                width="1728"
                height="1117"
                viewBox="0 0 1728 1117"
                fill="none"
                xmlns="http://www.w3.org/2000/svg">
                <g clip-path="url(#clip0_96_51)">
                    <rect width="1728" height="1117" fill="#D484A1" />
                    <rect
                        width="78"
                        height="20"
                        rx="10"
                        transform="matrix(0.946297 0.323298 0.323298 -0.946297 319.342 906.734)"
                        fill="#CDD7D6" />
                    <rect
                        width="78"
                        height="20"
                        rx="10"
                        transform="matrix(-0.86238 -0.506262 -0.506262 0.86238 342.336 731.406)"
                        fill="#CDD7D6" />
                    <rect
                        width="78"
                        height="20"
                        rx="10"
                        transform="matrix(0.794582 -0.607157 -0.607157 -0.794582 377.994 841.66)"
                        fill="#CDD7D6" />
                    <rect
                        width="78"
                        height="20"
                        rx="10"
                        transform="matrix(0.794582 -0.607157 -0.607157 -0.794582 489.782 859.142)"
                        fill="#CDD7D6" />
                    <rect
                        width="78"
                        height="20"
                        rx="10"
                        transform="matrix(-0.356115 -0.934442 -0.934442 0.356115 577.618 713.848)"
                        fill="#CDD7D6" />
                    <rect
                        width="78"
                        height="20"
                        rx="10"
                        transform="matrix(0.387672 -0.921797 -0.921797 -0.387672 245.242 919.772)"
                        fill="#CDD7D6" />
                    <rect
                        width="78"
                        height="20"
                        rx="10"
                        transform="matrix(-0.564426 0.825484 0.825484 0.564426 87.8747 901.865)"
                        fill="#CDD7D6" />
                    <rect
                        width="78"
                        height="20"
                        rx="10"
                        transform="matrix(-0.551019 -0.834493 -0.834493 0.551019 200.322 857.881)"
                        fill="#CDD7D6" />
                    <rect
                        width="78"
                        height="20"
                        rx="10"
                        transform="matrix(-0.999964 -0.00842395 -0.00842395 0.999964 111.185 761.131)"
                        fill="#CDD7D6" />
                    <rect
                        width="78"
                        height="20"
                        rx="10"
                        transform="matrix(-0.551019 -0.834493 -0.834493 0.551019 225.458 747.562)"
                        fill="#CDD7D6" />
                    <rect
                        width="78"
                        height="20"
                        rx="10"
                        transform="matrix(-0.956739 0.290946 0.290946 0.956739 102.516 635.034)"
                        fill="#CDD7D6" />
                    <rect
                        x="510.318"
                        y="343.214"
                        width="78"
                        height="20"
                        rx="10"
                        transform="rotate(49.2872 510.318 343.214)"
                        fill="#CDD7D6" />
                    <rect
                        x="370.994"
                        y="423.855"
                        width="78"
                        height="20"
                        rx="10"
                        transform="rotate(-142.265 370.994 423.855)"
                        fill="#CDD7D6" />
                    <rect
                        x="486.599"
                        y="415.917"
                        width="78"
                        height="20"
                        rx="10"
                        transform="rotate(105.534 486.599 415.917)"
                        fill="#CDD7D6" />
                    <rect
                        x="431.52"
                        y="551.384"
                        width="78"
                        height="20"
                        rx="10"
                        transform="rotate(161.614 431.52 551.384)"
                        fill="#CDD7D6" />
                    <rect
                        x="544.43"
                        y="529.167"
                        width="78"
                        height="20"
                        rx="10"
                        transform="rotate(105.534 544.43 529.167)"
                        fill="#CDD7D6" />
                    <rect
                        x="457.116"
                        y="658.814"
                        width="78"
                        height="20"
                        rx="10"
                        transform="rotate(179.012 457.116 658.814)"
                        fill="#CDD7D6" />
                    <rect
                        x="797.318"
                        y="420.214"
                        width="78"
                        height="20"
                        rx="10"
                        transform="rotate(49.2872 797.318 420.214)"
                        fill="#CDD7D6" />
                    <rect
                        x="657.994"
                        y="516.855"
                        width="78"
                        height="20"
                        rx="10"
                        transform="rotate(-142.265 657.994 516.855)"
                        fill="#CDD7D6" />
                    <rect
                        x="773.599"
                        y="508.917"
                        width="78"
                        height="20"
                        rx="10"
                        transform="rotate(105.534 773.599 508.917)"
                        fill="#CDD7D6" />
                    <rect
                        x="718.52"
                        y="628.384"
                        width="78"
                        height="20"
                        rx="10"
                        transform="rotate(161.614 718.52 628.384)"
                        fill="#CDD7D6" />
                    <rect
                        x="831.43"
                        y="606.167"
                        width="78"
                        height="20"
                        rx="10"
                        transform="rotate(105.534 831.43 606.167)"
                        fill="#CDD7D6" />
                    <rect
                        x="744.116"
                        y="751.814"
                        width="78"
                        height="20"
                        rx="10"
                        transform="rotate(179.012 744.116 751.814)"
                        fill="#CDD7D6" />
                    <rect
                        x="-26"
                        y="394.332"
                        width="78"
                        height="20"
                        rx="10"
                        transform="rotate(-36.7656 -26 394.332)"
                        fill="#CDD7D6" />
                    <rect
                        x="44.8594"
                        y="554.877"
                        width="78"
                        height="20"
                        rx="10"
                        transform="rotate(131.682 44.8594 554.877)"
                        fill="#CDD7D6" />
                    <rect
                        x="44.8979"
                        y="439"
                        width="78"
                        height="20"
                        rx="10"
                        transform="rotate(19.4811 44.8979 439)"
                        fill="#CDD7D6" />
                    <rect
                        x="160.29"
                        y="502.172"
                        width="78"
                        height="20"
                        rx="10"
                        transform="rotate(75.5615 160.29 502.172)"
                        fill="#CDD7D6" />
                    <rect
                        x="145.898"
                        y="372"
                        width="78"
                        height="20"
                        rx="10"
                        transform="rotate(19.4811 145.898 372)"
                        fill="#CDD7D6" />
                    <rect
                        x="269.228"
                        y="484.032"
                        width="78"
                        height="20"
                        rx="10"
                        transform="rotate(92.9587 269.228 484.032)"
                        fill="#CDD7D6" />
                    <rect
                        x="638"
                        y="-378"
                        width="662"
                        height="1228"
                        fill="#4F345A" />
                    <rect
                        x="2076.68"
                        y="193.92"
                        width="1001.29"
                        height="690.943"
                        transform="rotate(120 2076.68 193.92)"
                        fill="#226F54" />
                    <rect
                        x="-294"
                        y="-9.92383"
                        width="924.606"
                        height="474.13"
                        transform="rotate(-11.1509 -294 -9.92383)"
                        fill="#F3CF21" />
                    <rect
                        x="1435.57"
                        y="-671"
                        width="826.296"
                        height="690.943"
                        transform="rotate(45 1435.57 -671)"
                        fill="#C9383D" />
                    <path
                        d="M767 546L-65 1082.5H-74.5L-14 1377.5L1969 1436L1933.5 453L1634.5 721.5L767 546Z"
                        fill="#3E44B9" />
                    <rect
                        x="1728.28"
                        y="609"
                        width="569.695"
                        height="690.943"
                        transform="rotate(66.0153 1728.28 609)"
                        fill="#CDD7D6" />
                </g>
                <defs>
                    <clipPath id="clip0_96_51">
                        <rect width="1728" height="1117" fill="white" />
                    </clipPath>
    </defs>
</svg>
